<?xml version="1.0" ?><svg height="217.3224mm" id="svg4844" version="1.1" viewBox="0 0 770.04045 770.04001" width="217.32253mm" xmlns="http://www.w3.org/2000/svg" xmlns:cc="http://creativecommons.org/ns#" xmlns:dc="http://purl.org/dc/elements/1.1/" xmlns:inkscape="http://www.inkscape.org/namespaces/inkscape" xmlns:rdf="http://www.w3.org/1999/02/22-rdf-syntax-ns#" xmlns:sodipodi="http://sodipodi.sourceforge.net/DTD/sodipodi-0.dtd" xmlns:svg="http://www.w3.org/2000/svg"><defs id="defs4846"/><g id="layer1" transform="translate(11.536396,-65.984385)"><rect height="289.01398" id="rect5392" ry="0.30690756" style="opacity:1;fill:#000000;fill-opacity:1;stroke:none;stroke-opacity:1" transform="matrix(0.72368416,0.69013132,-0.68900089,0.72476049,0,0)" width="42.212292" x="571.11127" y="-305.30087"/><path d="m 690.76261,66.183622 a 73.131567,73.245943 0 0 0 -78.32352,67.649388 73.131567,73.245943 0 0 0 67.54383,78.44479 73.131567,73.245943 0 0 0 78.32222,-67.64824 73.131567,73.245943 0 0 0 -67.54253,-78.445938 z m -0.97293,18.698614 a 54.848674,54.934456 0 0 1 50.65764,58.832944 54.848674,54.934456 0 0 1 -58.74233,50.73676 54.848674,54.934456 0 0 1 -50.65751,-58.83419 54.848674,54.934456 0 0 1 58.7422,-50.735514 z" id="path5396" style="opacity:1;fill:#000000;fill-opacity:1;stroke:none;stroke-opacity:1"/><path d="m 465.27591,371.22085 -3.43447,3.34868 -152.29401,28.49489 -76.38182,18.27275 -131.06988,224.90324 -112.693831,188.87119 -0.938295,0.9128 192.420486,-106.7636 228.72676,-123.83534 20.73678,-75.86276 33.42631,-151.52582 4.92859,-4.75179 -4.04825,0.75593 0.62163,-2.82017 z" id="path5403" style="opacity:1;fill:#000000;fill-opacity:1;stroke:none;stroke-opacity:1"/></g></svg>