<?xml version="1.0" ?><svg height="202.291mm" id="svg4237" version="1.1" viewBox="0 0 716.77914 716.77913" width="202.291mm" xmlns="http://www.w3.org/2000/svg" xmlns:cc="http://creativecommons.org/ns#" xmlns:dc="http://purl.org/dc/elements/1.1/" xmlns:inkscape="http://www.inkscape.org/namespaces/inkscape" xmlns:rdf="http://www.w3.org/1999/02/22-rdf-syntax-ns#" xmlns:sodipodi="http://sodipodi.sourceforge.net/DTD/sodipodi-0.dtd" xmlns:svg="http://www.w3.org/2000/svg"><defs id="defs4239"/><g id="layer1" transform="translate(-13.772697,-4.2805732)"><path d="M 373.5422,247.06111 A 117.34803,117.52114 0 0 0 256.19462,364.58182 117.34803,117.52114 0 0 0 373.5422,482.10251 117.34803,117.52114 0 0 0 490.88978,364.58182 117.34803,117.52114 0 0 0 373.5422,247.06111 Z m -1.33552,48.31651 a 70.438155,70.542063 0 0 1 70.43777,70.54171 70.438155,70.542063 0 0 1 -70.43777,70.54167 70.438155,70.542063 0 0 1 -70.4378,-70.54167 70.438155,70.542063 0 0 1 70.4378,-70.54171 z" id="path4789" style="opacity:1;fill:#000000;fill-opacity:1;stroke:none;stroke-opacity:1"/><path d="m 616.58147,599.38978 -115.99131,0.2408 -115.99131,0.24079 57.78713,-100.57182 57.78712,-100.57181 58.20419,100.33102 z" id="path4817" style="opacity:1;fill:#000000;fill-opacity:1;stroke:#000000;stroke-opacity:1" transform="matrix(0.74706994,0,0,1.401275,-1.477961,-551.58787)"/><path d="m 616.58147,599.38978 -115.99131,0.2408 -115.99131,0.24079 57.78713,-100.57182 57.78712,-100.57181 58.20419,100.33102 z" id="path4819" style="opacity:1;fill:#000000;fill-opacity:1;stroke:#000000;stroke-opacity:1" transform="matrix(0.74705569,0,0,-1.4084763,-1.4708281,1281.2498)"/><path d="m 616.58147,599.38978 -115.99131,0.2408 -115.99131,0.24079 57.78713,-100.57182 57.78712,-100.57181 58.20419,100.33102 z" id="path4821" style="opacity:1;fill:#000000;fill-opacity:1;stroke:#000000;stroke-opacity:1" transform="matrix(-0.00130625,0.74817082,-1.3992102,-0.00245012,1287.7099,-4.0198482)"/><path d="m 616.58147,599.38978 -115.99131,0.2408 -115.99131,0.24079 57.78713,-100.57182 57.78712,-100.57181 58.20419,100.33102 z" id="path4823" style="opacity:1;fill:#000000;fill-opacity:1;stroke:#000000;stroke-opacity:1" transform="matrix(0.00130625,0.74817082,1.3992102,-0.00245012,-543.38536,-4.0198482)"/><path d="m 616.58147,599.38978 -115.99131,0.2408 -115.99131,0.24079 57.78713,-100.57182 57.78712,-100.57181 58.20419,100.33102 z" id="path12015" style="opacity:1;fill:#000000;fill-opacity:1;stroke:#000000;stroke-opacity:1" transform="matrix(0.74705569,0,0,1.4084763,-1.4708281,-555.90952)"/></g></svg>